<svg width="65" height="56" viewBox="0 0 65 56" fill="none" xmlns="http://www.w3.org/2000/svg">
<path d="M8.54325 28C8.54325 24.4156 9.21746 20.9885 10.4449 17.8384C9.8331 17.6996 9.19709 17.6257 8.54325 17.6257C3.82501 17.6257 0 21.4501 0 26.169C0 30.8879 3.82501 34.7122 8.54325 34.7122C8.81319 34.7122 9.07994 34.6989 9.34352 34.6747C8.82083 32.5355 8.54325 30.3002 8.54325 28Z" fill="#CDDE00"/>
<path d="M36.5439 56C52.0079 56 64.5439 43.464 64.5439 28C64.5439 12.536 52.0079 0 36.5439 0C21.08 0 8.54395 12.536 8.54395 28C8.54395 43.464 21.08 56 36.5439 56Z" fill="#006548"/>
<path d="M36.5439 56C52.0079 56 64.5439 43.464 64.5439 28C64.5439 12.536 52.0079 0 36.5439 0C21.08 0 8.54395 12.536 8.54395 28C8.54395 43.464 21.08 56 36.5439 56Z" fill="#006548"/>
<path d="M19.7882 27.9243V17.2088H15.9263V16.2621C15.9263 15.8839 16.0587 15.5618 16.3242 15.2969C16.589 15.0321 16.9112 14.8997 17.2893 14.8997H26.3005V17.2088H22.4768V27.9237H19.7882V27.9243Z" fill="white"/>
<path d="M31.8584 24.8197H33.7511C33.4729 25.8797 32.9432 26.6876 32.1608 27.2421C31.3777 27.8228 30.3934 28.1131 29.2073 28.1131C27.7685 28.1131 26.6448 27.6464 25.8375 26.7124C25.0296 25.8033 24.626 24.5033 24.626 22.8123C24.626 21.1977 25.0175 19.9353 25.8 19.0261C26.6072 18.0928 27.7309 17.6255 29.1698 17.6255C30.6844 17.6255 31.8577 18.0801 32.6905 18.9886C33.4977 19.9232 33.902 21.2226 33.902 22.8881C33.902 22.9893 33.902 23.0771 33.902 23.1529C33.902 23.2287 33.902 23.2802 33.902 23.3044C33.902 23.4311 33.8886 23.5196 33.8644 23.5693H27.3152C27.34 24.3517 27.5291 24.9324 27.8831 25.3112C28.211 25.7154 28.7031 25.9173 29.3601 25.9173C29.7892 25.9173 30.1553 25.8294 30.4584 25.6524C30.5341 25.6276 30.6029 25.5837 30.6665 25.52C30.7296 25.4576 30.799 25.3876 30.8747 25.3118C30.8996 25.236 30.9944 25.1361 31.1587 25.0088C31.3217 24.8827 31.5559 24.8197 31.8584 24.8197ZM27.3152 21.8662H31.1771C31.1262 21.1844 30.9499 20.6801 30.6468 20.3516C30.3183 19.9977 29.8516 19.8213 29.2462 19.8213C28.6904 19.8213 28.2358 19.9977 27.8831 20.3516C27.5291 20.7056 27.34 21.2105 27.3152 21.8662Z" fill="white"/>
<path d="M42.1002 24.8197H43.993C43.7148 25.8797 43.1851 26.6876 42.402 27.2421C41.6195 27.8228 40.6353 28.1131 39.4492 28.1131C38.0103 28.1131 36.8866 27.6464 36.0794 26.7124C35.2715 25.8033 34.8672 24.5033 34.8672 22.8123C34.8672 21.1977 35.2581 19.9353 36.0412 19.0261C36.8478 18.0928 37.9721 17.6255 39.411 17.6255C40.9256 17.6255 42.0996 18.0801 42.9317 18.9886C43.3862 19.5444 43.7141 20.1874 43.9166 20.9195H41.2662C41.1395 20.6681 41.0134 20.4783 40.8874 20.3523C40.5595 19.9983 40.0928 19.8219 39.4867 19.8219C38.9309 19.8219 38.477 19.9983 38.1237 20.3523C37.6691 20.8571 37.4418 21.6899 37.4418 22.8505C37.4418 24.0124 37.6691 24.833 38.1237 25.3118C38.4509 25.7161 38.9437 25.9179 39.6001 25.9179C40.0292 25.9179 40.3946 25.83 40.6977 25.653C40.7734 25.6282 40.8428 25.5843 40.9058 25.5206C40.9689 25.4582 41.0383 25.3882 41.114 25.3124C41.1643 25.2367 41.2656 25.1367 41.4171 25.0094C41.5699 24.8827 41.7972 24.8197 42.1002 24.8197Z" fill="white"/>
<path d="M51.1195 20.6919C50.7407 20.1622 50.2231 19.8974 49.5673 19.8974C48.86 19.8974 48.3176 20.1495 47.9388 20.655C47.5606 21.1599 47.3715 21.8538 47.3715 22.7375V27.9243H44.7969V14.8997H46.0842C46.4382 14.8997 46.7399 15.0264 46.9933 15.2778C47.2454 15.5306 47.3721 15.8336 47.3721 16.1863V19.1773C47.8267 18.4203 48.4697 17.9409 49.3031 17.7385C50.1358 17.5367 50.931 17.587 51.6886 17.89C52.3947 18.1931 52.9881 18.6725 53.4681 19.3289C53.9469 19.9852 54.1869 20.8944 54.1869 22.055V27.9237H51.6504V22.6987C51.6504 22.3198 51.618 21.9729 51.5556 21.6571C51.4913 21.3426 51.3468 21.0204 51.1195 20.6919Z" fill="white"/>
<path d="M28.6257 12.5852H26.314V14.8969H28.6257V12.5852Z" fill="#CDDE00"/>
<path d="M27.6528 38.6631C27.1224 38.9414 26.5603 39.1107 25.9675 39.1744C25.3742 39.2374 24.8509 39.2692 24.3963 39.2692C23.4878 39.2692 22.6926 39.0228 22.0107 38.5307C21.3295 38.0392 20.9883 37.2249 20.9883 36.0885C20.9883 35.0285 21.2971 34.2715 21.9159 33.8176C22.5341 33.363 23.3229 33.0599 24.2823 32.9084C24.4084 32.9084 24.5599 32.8893 24.7369 32.8518C24.9132 32.8142 25.1151 32.783 25.3424 32.7569C26.4527 32.6054 27.0085 32.2781 27.0085 31.7726C27.0085 31.3938 26.8124 31.1474 26.4215 31.0341C26.0299 30.9208 25.6702 30.8635 25.3424 30.8635C24.9884 30.8635 24.6732 30.9144 24.3956 31.015C24.1174 31.1162 23.9156 31.3053 23.7902 31.5829H21.2531C21.3537 30.8005 21.7077 30.1574 22.3132 29.6519C22.9944 29.0713 23.9659 28.781 25.2284 28.781C26.6418 28.781 27.7018 29.021 28.4091 29.5004C29.1406 30.0053 29.5073 30.712 29.5073 31.6205V35.0667C29.5073 36.0764 29.324 36.8652 28.9585 37.4331C28.5925 38.001 28.157 38.4117 27.6528 38.6631ZM27.0467 34.006C26.6927 34.183 26.2012 34.3466 25.5703 34.4981L24.6993 34.6872C24.2448 34.8139 23.9162 34.9782 23.7151 35.1794C23.5381 35.4576 23.4502 35.7345 23.4502 36.0121C23.4502 36.3909 23.5635 36.694 23.7908 36.9213C24.0175 37.1237 24.3454 37.2243 24.7751 37.2243C25.4811 37.2243 26.0369 37.0225 26.4412 36.6182C26.8449 36.2152 27.0467 35.6594 27.0467 34.9521V34.006Z" fill="white"/>
<path d="M32.0049 41.7724V31.3982C32.0049 30.489 32.2443 29.8078 32.7243 29.3539C33.1789 28.9248 33.9231 28.7102 34.9583 28.7102C35.2104 28.7102 35.4129 28.7236 35.5644 28.7478C35.842 28.7478 36.0565 28.7611 36.2081 28.7853V30.8678H35.5268C35.1729 30.8678 34.9208 30.9194 34.7692 31.0193C34.6425 31.1206 34.5801 31.3224 34.5801 31.6254V32.3073H36.2081V32.8746C36.2081 33.2534 36.0814 33.5628 35.8293 33.8022C35.5765 34.0422 35.2862 34.1619 34.9583 34.1619H34.5801V41.7718H32.0049V41.7724Z" fill="#CDDE00"/>
<path d="M45.9563 31.7011V37.6073C45.9563 39.3995 45.489 40.5735 44.555 41.128C43.6204 41.6838 42.5986 41.9614 41.4882 41.9614C40.4027 41.9104 39.4115 41.608 38.5163 41.0522C37.6199 40.4977 37.1724 39.3486 37.1724 37.6067V31.7004H39.8228V38.137C39.8228 38.7425 39.9991 39.1849 40.3531 39.4619C40.7064 39.7401 41.1101 39.8782 41.5646 39.8782C42.0186 39.8782 42.4292 39.7395 42.7953 39.4619C43.1607 39.1843 43.3441 38.7425 43.3441 38.137V32.9878C43.3441 32.6344 43.4638 32.332 43.7038 32.0792C43.9432 31.8271 44.2526 31.7004 44.6314 31.7004H45.9563V31.7011Z" fill="#CDDE00"/>
<path d="M47.2619 28.7476H48.6249C48.9783 28.7476 49.2807 28.8679 49.5334 29.1073C49.7856 29.3473 49.9116 29.644 49.9116 29.9973V41.7722H47.2612V28.7476H47.2619Z" fill="#CDDE00"/>
<path d="M51.6427 28.7476H53.0058C53.3591 28.7476 53.6616 28.8679 53.9143 29.1073C54.1664 29.3473 54.2925 29.644 54.2925 29.9973V41.7722H51.6421V28.7476H51.6427Z" fill="#CDDE00"/>
<path d="M10.4442 17.8384C9.2167 20.9885 8.54248 24.4156 8.54248 28C8.54248 30.3002 8.82006 32.5355 9.34275 34.6747C13.6854 34.271 17.0857 30.6173 17.0857 26.169C17.0864 22.104 14.2475 18.7023 10.4442 17.8384Z" fill="#005200"/>
<path d="M2.01172 26.1691C2.01172 22.5618 4.93587 19.6377 8.54314 19.6377C12.1504 19.6377 15.0746 22.5618 15.0746 26.1691C15.0746 29.7764 12.1504 32.7005 8.54314 32.7005C4.9365 32.6999 2.01172 29.7758 2.01172 26.1691Z" fill="#006548"/>
<path d="M8.23318 32.0313L7.57552 32.4413L7.14196 31.3895L8.23318 32.0313ZM7.18525 29.1453L8.23955 29.7979L7.61626 30.2206L7.18525 29.1453ZM7.15087 26.8782L8.2561 27.5461L7.60735 28.0134L7.15087 26.8782ZM8.90421 28.701L9.98397 28.0306L9.56378 29.1307L8.90421 28.701ZM7.16869 30.2678L9.19389 31.4965L8.58143 31.8925L7.52904 31.303L7.16869 30.2678ZM7.96069 30.3397L9.9636 29.1288L9.64145 30.1022L8.59798 30.8076L7.96069 30.3397ZM7.17061 28.0541L9.21108 29.2268L8.53814 29.6859L7.52013 29.0689L7.17061 28.0541ZM7.93204 28.1248L9.96551 26.9018L9.59753 27.9484L8.60689 28.5475L7.93204 28.1248ZM7.86901 26.9546H9.22636L8.58143 27.4633L7.86901 26.9546ZM8.90421 30.884L9.98397 30.2149L9.56378 31.3144L8.90421 30.884ZM8.5445 26.1849C8.5445 26.1849 7.45264 23.0309 7.24446 22.4C7.15914 22.1428 7.12349 21.9212 7.28775 21.7061L8.54387 20.0603L9.79935 21.7061C9.9636 21.9212 9.92731 22.1428 9.84264 22.4C9.63509 23.0309 8.5445 26.1849 8.5445 26.1849ZM14.727 26.5459L8.92968 26.5465L11.5699 25.1873C13.0425 24.429 13.5301 25.0644 14.0687 25.731L14.727 26.5459ZM8.80107 26.2549L10.6225 22.9908C10.8587 22.5674 11.4629 22.3548 11.992 22.6731L14.0382 23.9031L13.0125 23.905C12.5605 23.9063 12.2014 24.0789 11.8748 24.2877L8.80107 26.2549ZM2.36133 26.5459L3.01963 25.731C3.55824 25.0644 4.04591 24.4297 5.51849 25.1873L8.15869 26.5465L2.36133 26.5459ZM8.28729 26.2549L5.2129 24.2877C4.88693 24.0789 4.52722 23.9057 4.0752 23.905L3.04891 23.9031L5.09575 22.6731C5.62481 22.3548 6.229 22.5681 6.46519 22.9908L8.28729 26.2549ZM7.84227 32.6603L9.9636 31.4061L9.55869 32.6247C9.234 32.6737 8.90166 32.6998 8.56297 32.6998C8.31913 32.6998 8.07911 32.6864 7.84227 32.6603Z" fill="white"/>
</svg>
