<svg width="46" height="30" viewBox="0 0 46 30" fill="none" xmlns="http://www.w3.org/2000/svg">
<g clip-path="url(#clip0_51_2)">
<path d="M45.3518 0.116026C45.1518 0.216026 44.9518 0.316026 44.7618 0.428026C37.5084 4.52036 31.792 10.8721 28.4838 18.515C27.3533 21.1069 26.5268 23.821 26.0208 26.603C25.9707 26.8642 25.9429 27.1291 25.9378 27.395C25.9378 27.467 26.0608 27.569 26.1498 27.6C26.1988 27.618 26.3258 27.544 26.3548 27.483C26.4081 27.3616 26.4441 27.2334 26.4618 27.102C26.5678 26.578 26.6618 26.052 26.7728 25.531C28.1205 19.3469 31.0273 13.6102 35.2168 8.86603C37.8902 5.81146 41.0398 3.20922 44.5438 1.16003C44.7438 1.04603 44.9508 0.960027 45.1998 0.831027C45.2158 1.03103 45.2298 1.11603 45.2308 1.20503C45.2822 3.80999 45.0264 6.41193 44.4688 8.95703C42.7899 16.8394 38.5966 23.9633 32.5198 29.257C32.3797 29.3665 32.2528 29.4921 32.1418 29.631C32.0918 29.7 32.0878 29.893 32.1308 29.919C32.2308 29.9848 32.3557 30.0003 32.4688 29.961C32.7044 29.7944 32.928 29.6112 33.1378 29.413C36.4196 26.4896 39.1682 23.0179 41.2608 19.153C44.2151 13.7654 45.7677 7.72151 45.7758 1.57703V0.956026C45.7577 0.661493 45.7243 0.368097 45.6758 0.0770264C45.5667 0.0782044 45.4581 0.0912818 45.3518 0.116026Z" fill="#FC1E23"/>
<path d="M0.173802 0C0.024715 0.553538 -0.0290531 1.12842 0.0148018 1.7C0.0170671 4.68451 0.396746 7.65676 1.1448 10.546C3.05988 17.9953 7.19811 24.6847 13.0088 29.724C13.1188 29.8337 13.2466 29.924 13.3868 29.991C13.4885 30.008 13.5925 29.9791 13.6708 29.912C13.7121 29.8384 13.7121 29.7486 13.6708 29.675C13.5291 29.5051 13.3747 29.3463 13.2088 29.2C10.6309 26.9329 8.3765 24.3225 6.5088 21.442C2.64647 15.5628 0.570424 8.69032 0.531802 1.656C0.531802 1.402 0.549802 1.147 0.563802 0.789C0.992802 1.031 1.3248 1.2 1.6378 1.398C10.9819 6.96289 17.4347 16.326 19.3088 27.039C19.3223 27.1714 19.356 27.3009 19.4088 27.423C19.4518 27.506 19.6088 27.623 19.6428 27.599C19.747 27.5358 19.8265 27.4387 19.8678 27.324C19.8785 27.2143 19.8645 27.1036 19.8268 27C19.6948 26.323 19.5848 25.641 19.4218 24.973C17.0027 14.4953 10.2497 5.53704 0.842802 0.327C0.657802 0.219 0.456802 0.138 0.173802 0Z" fill="#FC1E23"/>
</g>
<defs>
<clipPath id="clip0_51_2">
<rect width="45.7758" height="29.9958" fill="white"/>
</clipPath>
</defs>
</svg>
