<svg width="26" height="26" viewBox="0 0 26 26" xmlns="http://www.w3.org/2000/svg">
    <g fill="none" fill-rule="evenodd">
        <path fill="none" d="M0 0h26v26H0z"/>
        <path d="M24.917 13C24.917 6.419 19.58 1.083 13 1.083 6.419 1.083 1.083 6.42 1.083 13c0 5.948 4.358 10.878 10.055 11.772v-8.327H8.112V13h3.026v-2.625c0-2.987 1.78-4.637 4.501-4.637 1.304 0 2.668.233 2.668.233v2.933h-1.503c-1.48 0-1.942.918-1.942 1.86V13h3.305l-.528 3.445h-2.777v8.327c5.697-.894 10.055-5.824 10.055-11.772" fill="#121416"/>
    </g>
</svg>
