<svg width="26" height="26" viewBox="0 0 26 26" xmlns="http://www.w3.org/2000/svg">
    <g fill="none" fill-rule="evenodd">
        <path fill="none" d="M0 0h26v26H0z"/>
        <path d="M14.113 2.168c1.95.003 2.363.019 3.354.064 1.153.052 1.94.236 2.63.503a5.31 5.31 0 0 1 1.919 1.25 5.31 5.31 0 0 1 1.25 1.919c.267.689.45 1.476.503 2.63.045.99.06 1.403.064 3.353v2.226c-.004 1.95-.02 2.363-.064 3.354-.053 1.153-.236 1.94-.504 2.63a5.31 5.31 0 0 1-1.25 1.919 5.31 5.31 0 0 1-1.918 1.25c-.69.267-1.477.45-2.63.503-.99.045-1.403.06-3.354.064h-2.226c-1.95-.004-2.363-.02-3.353-.064-1.154-.053-1.941-.236-2.63-.504a5.31 5.31 0 0 1-1.919-1.25 5.31 5.31 0 0 1-1.25-1.918c-.267-.69-.45-1.477-.503-2.63-.045-.99-.06-1.403-.064-3.354v-2.226c.003-1.95.019-2.363.064-3.353.052-1.154.236-1.941.503-2.63a5.31 5.31 0 0 1 1.25-1.919 5.31 5.31 0 0 1 1.919-1.25c.689-.267 1.476-.45 2.63-.503.99-.045 1.403-.06 3.353-.064zM13 4.118h-.3l-.793.001c-1.276.003-1.875.01-2.423.028l-.204.007c-.205.007-.413.017-.657.028-1.057.048-1.63.224-2.012.373a3.356 3.356 0 0 0-1.246.81c-.379.38-.614.74-.81 1.246-.149.382-.325.955-.373 2.012l-.028.657-.007.204a78.211 78.211 0 0 0-.028 2.423V14.094c.004 1.913.018 2.305.063 3.284.048 1.056.224 1.63.373 2.012.196.505.431.866.81 1.245.38.38.74.614 1.246.81.382.149.955.325 2.012.374.979.044 1.37.059 3.284.062H14.094c1.913-.003 2.305-.018 3.284-.062 1.056-.049 1.63-.225 2.012-.373a3.356 3.356 0 0 0 1.245-.81c.38-.38.614-.74.81-1.246.149-.382.325-.956.374-2.012.044-.98.059-1.37.062-3.284v-2.187c-.003-1.914-.018-2.305-.062-3.284-.049-1.057-.225-1.63-.373-2.012a3.356 3.356 0 0 0-.81-1.246c-.38-.379-.74-.614-1.246-.81-.382-.149-.956-.325-2.012-.373-.98-.045-1.37-.06-3.284-.063H13.3zm0 3.32a5.563 5.563 0 1 1 0 11.125 5.563 5.563 0 0 1 0-11.126zm0 1.951a3.611 3.611 0 1 0 0 7.222 3.611 3.611 0 0 0 0-7.222zm5.783-3.472a1.3 1.3 0 1 1 0 2.6 1.3 1.3 0 0 1 0-2.6z" fill="#121416"/>
    </g>
</svg>
