<svg width="26" height="26" viewBox="0 0 26 26" xmlns="http://www.w3.org/2000/svg">
    <g fill="none" fill-rule="evenodd">
        <path fill="none" d="M0 0h26v26H0z"/>
        <path d="M8.98 21.667c8.177 0 12.648-6.668 12.648-12.45 0-.19-.003-.378-.012-.566a8.967 8.967 0 0 0 2.217-2.266 8.985 8.985 0 0 1-2.553.69 4.404 4.404 0 0 0 1.955-2.421c-.859.5-1.81.865-2.822 1.062a4.474 4.474 0 0 0-3.245-1.383c-2.455 0-4.446 1.96-4.446 4.376 0 .343.039.677.115.997a12.688 12.688 0 0 1-9.162-4.571 4.308 4.308 0 0 0-.602 2.199c0 1.518.784 2.858 1.978 3.642a4.465 4.465 0 0 1-2.014-.547v.056c0 2.12 1.532 3.888 3.566 4.29a4.523 4.523 0 0 1-2.008.075c.566 1.738 2.207 3.003 4.153 3.039a9.01 9.01 0 0 1-5.52 1.873c-.36 0-.713-.02-1.061-.06a12.73 12.73 0 0 0 6.814 1.965" fill="#121416"/>
    </g>
</svg>
