<svg width="32" height="32" viewBox="0 0 32 32" fill="none" xmlns="http://www.w3.org/2000/svg">
<rect width="32" height="32" fill="black" fill-opacity="0.01"/>
<path fill-rule="evenodd" clip-rule="evenodd" d="M16.0001 2.66666C12.3789 2.66666 11.9249 2.68201 10.5027 2.7469C9.08348 2.81163 8.11421 3.03705 7.2661 3.36668C6.38929 3.70738 5.64571 4.1633 4.9044 4.90455C4.16315 5.64586 3.70722 6.38945 3.36653 7.26625C3.03689 8.11437 2.81147 9.08363 2.74674 10.5028C2.68185 11.925 2.6665 12.3791 2.6665 16.0003C2.6665 19.6215 2.68185 20.0755 2.74674 21.4977C2.81147 22.9169 3.03689 23.8862 3.36653 24.7343C3.70722 25.6111 4.16315 26.3547 4.9044 27.096C5.64571 27.8373 6.38929 28.2932 7.2661 28.6339C8.11421 28.9635 9.08348 29.1889 10.5027 29.2537C11.9249 29.3185 12.3789 29.3339 16.0001 29.3339C19.6213 29.3339 20.0754 29.3185 21.4976 29.2537C22.9168 29.1889 23.886 28.9635 24.7341 28.6339C25.611 28.2932 26.3545 27.8373 27.0958 27.096C27.8371 26.3547 28.293 25.6111 28.6338 24.7343C28.9634 23.8862 29.1888 22.9169 29.2535 21.4977C29.3184 20.0755 29.3337 19.6215 29.3337 16.0003C29.3337 12.3791 29.3184 11.925 29.2535 10.5028C29.1888 9.08363 28.9634 8.11437 28.6338 7.26625C28.293 6.38945 27.8371 5.64586 27.0958 4.90455C26.3545 4.1633 25.611 3.70738 24.7341 3.36668C23.886 3.03705 22.9168 2.81163 21.4976 2.7469C20.0754 2.68201 19.6213 2.66666 16.0001 2.66666ZM16.0001 5.06911C19.5603 5.06911 19.9821 5.08271 21.388 5.14686C22.6881 5.20614 23.3941 5.42335 23.8639 5.60595C24.4863 5.84783 24.9305 6.13677 25.397 6.60338C25.8636 7.06994 26.1526 7.51411 26.3944 8.13649C26.577 8.60633 26.7943 9.31233 26.8535 10.6123C26.9177 12.0183 26.9313 12.4401 26.9313 16.0003C26.9313 19.5605 26.9177 19.9822 26.8535 21.3882C26.7943 22.6882 26.577 23.3942 26.3944 23.8641C26.1526 24.4864 25.8636 24.9306 25.397 25.3972C24.9305 25.8638 24.4863 26.1527 23.8639 26.3946C23.3941 26.5772 22.6881 26.7944 21.388 26.8537C19.9823 26.9178 19.5606 26.9314 16.0001 26.9314C12.4396 26.9314 12.018 26.9178 10.6122 26.8537C9.31218 26.7944 8.60618 26.5772 8.13634 26.3946C7.51396 26.1527 7.06979 25.8638 6.60323 25.3972C6.13667 24.9306 5.84768 24.4864 5.6058 23.8641C5.4232 23.3942 5.20598 22.6882 5.1467 21.3882C5.08256 19.9822 5.06895 19.5605 5.06895 16.0003C5.06895 12.4401 5.08256 12.0183 5.1467 10.6123C5.20598 9.31233 5.4232 8.60633 5.6058 8.13649C5.84768 7.51411 6.13661 7.06994 6.60323 6.60338C7.06979 6.13677 7.51396 5.84783 8.13634 5.60595C8.60618 5.42335 9.31218 5.20614 10.6122 5.14686C12.0182 5.08271 12.4399 5.06911 16.0001 5.06911ZM16.0001 20.4448C13.5455 20.4448 11.5556 18.4549 11.5556 16.0003C11.5556 13.5456 13.5455 11.5557 16.0001 11.5557C18.4548 11.5557 20.4447 13.5456 20.4447 16.0003C20.4447 18.4549 18.4548 20.4448 16.0001 20.4448ZM16.0001 9.15329C12.2186 9.15329 9.15313 12.2188 9.15313 16.0003C9.15313 19.7818 12.2186 22.8473 16.0001 22.8473C19.7816 22.8473 22.8471 19.7818 22.8471 16.0003C22.8471 12.2188 19.7816 9.15329 16.0001 9.15329ZM23.1176 10.4828C24.0013 10.4828 24.7177 9.76646 24.7177 8.88277C24.7177 7.99909 24.0013 7.28271 23.1176 7.28271C22.234 7.28271 21.5176 7.99909 21.5176 8.88277C21.5176 9.76646 22.234 10.4828 23.1176 10.4828Z" fill="#121416"/>
</svg>
