<svg width="32" height="32" viewBox="0 0 32 32" fill="none" xmlns="http://www.w3.org/2000/svg">
<rect width="32" height="32" fill="black" fill-opacity="0.01"/>
<path fill-rule="evenodd" clip-rule="evenodd" d="M11.053 26.6667C21.1163 26.6667 26.6195 18.4599 26.6195 11.3437C26.6195 11.1104 26.6146 10.8783 26.6038 10.6474C27.672 9.8873 28.6006 8.93883 29.3332 7.85897C28.3528 8.28757 27.2978 8.57652 26.1912 8.70676C27.3207 8.04012 28.188 6.98513 28.597 5.72761C27.5396 6.34452 26.3693 6.79324 25.1231 7.03486C24.1247 5.98808 22.7029 5.33334 21.1295 5.33334C18.1079 5.33334 15.6576 7.74526 15.6576 10.7185C15.6576 11.1411 15.7057 11.5521 15.7995 11.9464C11.2526 11.7214 7.22059 9.57826 4.52251 6.31968C4.05222 7.11533 3.78155 8.04012 3.78155 9.02646C3.78155 10.8949 4.74747 12.5444 6.21618 13.5093C5.31883 13.4822 4.4756 13.2394 3.73826 12.8356C3.73706 12.8581 3.73706 12.8806 3.73706 12.9043C3.73706 15.5128 5.62317 17.6902 8.12634 18.1841C7.66688 18.3072 7.1833 18.3735 6.68411 18.3735C6.33166 18.3735 5.98885 18.3392 5.65561 18.2764C6.35207 20.416 8.37172 21.9731 10.7666 22.017C8.89377 23.4614 6.53495 24.3223 3.97161 24.3223C3.53015 24.3223 3.09471 24.2974 2.6665 24.2477C5.08784 25.7751 7.96275 26.6667 11.053 26.6667Z" fill="#121416"/>
</svg>
